<svg width="167" height="25" viewBox="0 0 167 25" fill="none" xmlns="http://www.w3.org/2000/svg">
<path d="M0.192 20.704C1.06667 20.6827 1.664 20.5973 1.984 20.448C2.304 20.2987 2.50667 19.9573 2.592 19.424C2.69867 18.8907 2.752 17.8987 2.752 16.448V1.984H6.592V14.464C6.592 17.728 6.47467 19.9573 6.24 21.152C6.00533 22.3467 5.48267 23.1147 4.672 23.456C3.88267 23.7973 2.38933 23.9787 0.192 24V20.704ZM16.8038 24.256C15.2251 24.256 14.0731 24.032 13.3478 23.584C12.6438 23.1147 12.1851 22.3253 11.9718 21.216C11.7584 20.0853 11.6518 18.2933 11.6518 15.84C11.6518 13.408 11.7584 11.6373 11.9718 10.528C12.1851 9.39733 12.6438 8.59733 13.3478 8.128C14.0731 7.65867 15.2251 7.424 16.8038 7.424C18.4038 7.424 19.5558 7.65867 20.2598 8.128C20.9851 8.59733 21.4544 9.38667 21.6678 10.496C21.8811 11.6053 21.9878 13.3867 21.9878 15.84C21.9878 18.2933 21.8811 20.0853 21.6678 21.216C21.4544 22.3253 20.9851 23.1147 20.2598 23.584C19.5558 24.032 18.4038 24.256 16.8038 24.256ZM16.8038 21.184C17.3371 21.184 17.6998 21.0773 17.8918 20.864C18.1051 20.6507 18.2331 20.2133 18.2758 19.552C18.3398 18.8693 18.3718 17.632 18.3718 15.84C18.3718 14.048 18.3398 12.8213 18.2758 12.16C18.2331 11.4773 18.1051 11.0293 17.8918 10.816C17.6998 10.6027 17.3371 10.496 16.8038 10.496C16.2918 10.496 15.9291 10.6027 15.7158 10.816C15.5238 11.0293 15.3958 11.4773 15.3318 12.16C15.2891 12.8213 15.2678 14.048 15.2678 15.84C15.2678 17.632 15.2891 18.8693 15.3318 19.552C15.3958 20.2133 15.5238 20.6507 15.7158 20.864C15.9291 21.0773 16.2918 21.184 16.8038 21.184ZM30.7833 24.256C30.1219 24.256 29.3966 24.2027 28.6073 24.096C27.8393 24.0107 27.2099 23.8933 26.7193 23.744V20.928C27.7859 21.0987 28.7993 21.184 29.7593 21.184C30.5273 21.184 31.0606 21.056 31.3593 20.8C31.6793 20.5227 31.8393 20.032 31.8393 19.328C31.8393 18.7733 31.8073 18.3787 31.7433 18.144C31.7006 17.888 31.6046 17.7173 31.4553 17.632C31.3059 17.5253 31.0499 17.44 30.6873 17.376L28.4153 16.928C27.6899 16.8 27.1673 16.3947 26.8473 15.712C26.5486 15.0293 26.3993 13.9093 26.3993 12.352C26.3993 10.6027 26.7939 9.344 27.5833 8.576C28.3726 7.808 29.5459 7.424 31.1033 7.424C31.7433 7.424 32.3939 7.47733 33.0553 7.584C33.7379 7.66933 34.2819 7.78667 34.6873 7.936V10.784C33.6846 10.592 32.7246 10.496 31.8073 10.496C31.1459 10.496 30.6766 10.6133 30.3993 10.848C30.1433 11.0827 30.0153 11.5413 30.0153 12.224C30.0153 12.7573 30.0366 13.1413 30.0793 13.376C30.1219 13.5893 30.2073 13.7387 30.3353 13.824C30.4633 13.9093 30.6766 13.984 30.9753 14.048L32.9273 14.432C33.4393 14.5173 33.8659 14.688 34.2073 14.944C34.5486 15.1787 34.8259 15.616 35.0393 16.256C35.2739 16.896 35.3913 17.8133 35.3913 19.008C35.3913 20.9493 35.0179 22.3147 34.2713 23.104C33.5246 23.872 32.3619 24.256 30.7833 24.256ZM46.6035 14.88C46.6035 13.4933 46.5715 12.5333 46.5075 12C46.4648 11.4453 46.3475 11.0933 46.1555 10.944C45.9848 10.7733 45.6648 10.688 45.1955 10.688C44.6835 10.688 44.3208 10.8267 44.1075 11.104C43.9155 11.3813 43.7982 11.84 43.7555 12.48C43.7128 13.0987 43.6915 14.208 43.6915 15.808V24H40.0755V0.223999H43.6915V9.536H43.9475C44.3528 8.128 45.3768 7.424 47.0195 7.424C47.9368 7.424 48.6195 7.616 49.0675 8C49.5155 8.36267 49.8142 8.94933 49.9635 9.76C50.1342 10.5493 50.2195 11.68 50.2195 13.152V24H46.6035V14.88ZM61.9828 22.016H61.7588C61.3321 23.5093 60.2868 24.256 58.6228 24.256C57.7054 24.256 57.0121 24.0747 56.5428 23.712C56.0948 23.328 55.7854 22.7413 55.6148 21.952C55.4654 21.1413 55.3908 20 55.3908 18.528V7.68H59.0068V16.8C59.0068 18.1653 59.0388 19.1253 59.1028 19.68C59.1668 20.2347 59.2841 20.5973 59.4548 20.768C59.6468 20.9173 59.9774 20.992 60.4468 20.992C60.9374 20.992 61.2788 20.8533 61.4708 20.576C61.6841 20.2987 61.8121 19.8507 61.8548 19.232C61.8974 18.592 61.9188 17.472 61.9188 15.872V7.68H65.5348V24H62.1108L61.9828 22.016ZM73.682 24.256C72.402 24.256 71.5167 23.872 71.026 23.104C70.5353 22.3147 70.29 21.0453 70.29 19.296C70.29 18.0587 70.4073 17.088 70.642 16.384C70.8767 15.68 71.2607 15.168 71.794 14.848C72.3487 14.528 73.1167 14.368 74.098 14.368C74.8873 14.368 75.7513 14.4107 76.69 14.496V13.6C76.69 12.5973 76.6367 11.8933 76.53 11.488C76.4233 11.0827 76.1993 10.816 75.858 10.688C75.5167 10.56 74.93 10.496 74.098 10.496C73.1593 10.496 72.114 10.5707 70.962 10.72V7.84C72.2633 7.56267 73.682 7.424 75.218 7.424C76.5833 7.424 77.6287 7.62667 78.354 8.032C79.0793 8.416 79.5807 9.06667 79.858 9.984C80.1567 10.9013 80.306 12.2027 80.306 13.888V24H76.882L76.754 22.016H76.53C76.3593 22.784 76.0073 23.3493 75.474 23.712C74.962 24.0747 74.3647 24.256 73.682 24.256ZM75.058 20.992C75.442 20.992 75.7513 20.9387 75.986 20.832C76.2207 20.7253 76.3913 20.5013 76.498 20.16C76.626 19.6053 76.69 18.8373 76.69 17.856V16.864H75.09C74.5567 16.864 74.194 17.0027 74.002 17.28C73.8313 17.5573 73.746 18.1333 73.746 19.008C73.746 19.776 73.8207 20.2987 73.97 20.576C74.1407 20.8533 74.5033 20.992 75.058 20.992ZM101.41 24L100.674 19.168H96.8983L96.1623 24H92.3543L95.9703 1.984H101.666L105.314 24H101.41ZM98.8823 5.952H98.6903L97.2823 15.776H100.29L98.8823 5.952ZM111.274 24L108.202 7.68H111.818L113.706 19.776H113.962L115.722 7.68H119.306L116.234 24H111.274ZM123.668 7.68H127.092L127.22 10.4H127.476C127.753 9.26933 128.148 8.49067 128.66 8.064C129.172 7.63733 129.865 7.424 130.74 7.424V11.296C129.545 11.296 128.671 11.648 128.116 12.352C127.561 13.0347 127.284 14.272 127.284 16.064V24H123.668V7.68ZM135.204 3.84V0.223999H138.884V3.84H135.204ZM135.236 24V7.68H138.852V24H135.236ZM151.761 23.84C150.779 24.1173 149.755 24.256 148.689 24.256C147.323 24.256 146.299 23.968 145.617 23.392C144.934 22.7947 144.475 21.92 144.241 20.768C144.027 19.5947 143.921 17.952 143.921 15.84C143.921 13.664 144.049 11.9893 144.305 10.816C144.561 9.62133 145.019 8.75733 145.681 8.224C146.363 7.69067 147.355 7.424 148.657 7.424C149.873 7.424 150.875 7.552 151.665 7.808V10.688C150.854 10.56 150.203 10.496 149.713 10.496C149.03 10.496 148.55 10.6133 148.273 10.848C147.995 11.0613 147.803 11.5307 147.697 12.256C147.59 12.96 147.537 14.1547 147.537 15.84C147.537 17.5467 147.59 18.7627 147.697 19.488C147.803 20.192 147.995 20.6507 148.273 20.864C148.571 21.0773 149.062 21.184 149.745 21.184C150.235 21.184 150.907 21.12 151.761 20.992V23.84ZM163.183 24L161.039 17.408H160.143V24H156.527V0.223999H160.143V14.304H161.039L163.247 7.68H166.863L164.047 15.456L166.927 24H163.183Z" fill="black"/>
</svg>
