<svg width="183" height="26" viewBox="0 0 183 26" fill="none" xmlns="http://www.w3.org/2000/svg">
<path d="M11.2344 18.0156V2.25H15.9062V18.0156C15.9062 19.5365 15.5729 20.8438 14.9062 21.9375C14.2396 23.0208 13.3281 23.8542 12.1719 24.4375C11.026 25.0208 9.73438 25.3125 8.29688 25.3125C6.80729 25.3125 5.48958 25.0625 4.34375 24.5625C3.19792 24.0625 2.29688 23.2969 1.64062 22.2656C0.984375 21.224 0.65625 19.9062 0.65625 18.3125H5.35938C5.35938 19.1458 5.47396 19.8073 5.70312 20.2969C5.94271 20.7865 6.28125 21.1354 6.71875 21.3438C7.15625 21.5521 7.68229 21.6562 8.29688 21.6562C8.89062 21.6562 9.40625 21.5156 9.84375 21.2344C10.2812 20.9531 10.6198 20.5417 10.8594 20C11.1094 19.4583 11.2344 18.7969 11.2344 18.0156ZM20.1863 16.7188V16.3906C20.1863 15.151 20.3633 14.0104 20.7175 12.9688C21.0717 11.9167 21.5873 11.0052 22.2644 10.2344C22.9415 9.46354 23.7748 8.86458 24.7644 8.4375C25.754 8 26.8894 7.78125 28.1706 7.78125C29.4519 7.78125 30.5925 8 31.5925 8.4375C32.5925 8.86458 33.431 9.46354 34.1081 10.2344C34.7956 11.0052 35.3165 11.9167 35.6706 12.9688C36.0248 14.0104 36.2019 15.151 36.2019 16.3906V16.7188C36.2019 17.9479 36.0248 19.0885 35.6706 20.1406C35.3165 21.1823 34.7956 22.0938 34.1081 22.875C33.431 23.6458 32.5977 24.2448 31.6081 24.6719C30.6185 25.099 29.4831 25.3125 28.2019 25.3125C26.9206 25.3125 25.78 25.099 24.78 24.6719C23.7904 24.2448 22.9519 23.6458 22.2644 22.875C21.5873 22.0938 21.0717 21.1823 20.7175 20.1406C20.3633 19.0885 20.1863 17.9479 20.1863 16.7188ZM24.6863 16.3906V16.7188C24.6863 17.4271 24.7488 18.0885 24.8738 18.7031C24.9988 19.3177 25.1967 19.8594 25.4675 20.3281C25.7488 20.7865 26.1133 21.1458 26.5613 21.4062C27.0092 21.6667 27.556 21.7969 28.2019 21.7969C28.8269 21.7969 29.3633 21.6667 29.8113 21.4062C30.2592 21.1458 30.6185 20.7865 30.8894 20.3281C31.1602 19.8594 31.3581 19.3177 31.4831 18.7031C31.6185 18.0885 31.6863 17.4271 31.6863 16.7188V16.3906C31.6863 15.7031 31.6185 15.0573 31.4831 14.4531C31.3581 13.8385 31.155 13.2969 30.8738 12.8281C30.6029 12.349 30.2435 11.974 29.7956 11.7031C29.3477 11.4323 28.806 11.2969 28.1706 11.2969C27.5352 11.2969 26.9935 11.4323 26.5456 11.7031C26.1081 11.974 25.7488 12.349 25.4675 12.8281C25.1967 13.2969 24.9988 13.8385 24.8738 14.4531C24.7488 15.0573 24.6863 15.7031 24.6863 16.3906ZM49.3881 20.3281C49.3881 20.0052 49.2944 19.7135 49.1069 19.4531C48.9194 19.1927 48.5704 18.9531 48.06 18.7344C47.56 18.5052 46.836 18.2969 45.8881 18.1094C45.034 17.9219 44.2371 17.6875 43.4975 17.4062C42.7683 17.1146 42.1329 16.7656 41.5913 16.3594C41.06 15.9531 40.6433 15.474 40.3413 14.9219C40.0392 14.3594 39.8881 13.7188 39.8881 13C39.8881 12.2917 40.0392 11.625 40.3413 11C40.6538 10.375 41.0965 9.82292 41.6694 9.34375C42.2527 8.85417 42.961 8.47396 43.7944 8.20312C44.6381 7.92188 45.586 7.78125 46.6381 7.78125C48.1069 7.78125 49.3673 8.01562 50.4194 8.48438C51.4819 8.95312 52.2944 9.59896 52.8569 10.4219C53.4298 11.2344 53.7163 12.1615 53.7163 13.2031H49.2163C49.2163 12.7656 49.1225 12.375 48.935 12.0312C48.7579 11.6771 48.4767 11.401 48.0913 11.2031C47.7163 10.9948 47.2267 10.8906 46.6225 10.8906C46.1225 10.8906 45.6902 10.9792 45.3256 11.1562C44.961 11.3229 44.6798 11.5521 44.4819 11.8438C44.2944 12.125 44.2006 12.4375 44.2006 12.7812C44.2006 13.0417 44.2527 13.276 44.3569 13.4844C44.4715 13.6823 44.6538 13.8646 44.9038 14.0312C45.1538 14.1979 45.4767 14.3542 45.8725 14.5C46.2788 14.6354 46.7788 14.7604 47.3725 14.875C48.5913 15.125 49.6798 15.4531 50.6381 15.8594C51.5965 16.2552 52.3569 16.7969 52.9194 17.4844C53.4819 18.1615 53.7631 19.0521 53.7631 20.1562C53.7631 20.9062 53.5965 21.5938 53.2631 22.2188C52.9298 22.8438 52.4506 23.3906 51.8256 23.8594C51.2006 24.3177 50.4506 24.6771 49.5756 24.9375C48.711 25.1875 47.7371 25.3125 46.6538 25.3125C45.0808 25.3125 43.7475 25.0312 42.6538 24.4688C41.5704 23.9062 40.7475 23.1927 40.185 22.3281C39.6329 21.4531 39.3569 20.5573 39.3569 19.6406H43.6225C43.6433 20.2552 43.7996 20.75 44.0913 21.125C44.3933 21.5 44.7735 21.7708 45.2319 21.9375C45.7006 22.1042 46.2058 22.1875 46.7475 22.1875C47.3308 22.1875 47.8152 22.1094 48.2006 21.9531C48.586 21.7865 48.8777 21.5677 49.0756 21.2969C49.284 21.0156 49.3881 20.6927 49.3881 20.3281ZM62.3556 1V25H57.8556V1H62.3556ZM61.715 15.9531H60.4806C60.491 14.776 60.6473 13.6927 60.9494 12.7031C61.2515 11.7031 61.6838 10.8385 62.2463 10.1094C62.8088 9.36979 63.4806 8.79688 64.2619 8.39062C65.0535 7.98438 65.9285 7.78125 66.8869 7.78125C67.7202 7.78125 68.4754 7.90104 69.1525 8.14062C69.84 8.36979 70.4285 8.74479 70.9181 9.26562C71.4181 9.77604 71.8035 10.4479 72.0744 11.2812C72.3452 12.1146 72.4806 13.125 72.4806 14.3125V25H67.9494V14.2812C67.9494 13.5312 67.84 12.9427 67.6213 12.5156C67.4129 12.0781 67.1056 11.7708 66.6994 11.5938C66.3035 11.4062 65.814 11.3125 65.2306 11.3125C64.5848 11.3125 64.0327 11.4323 63.5744 11.6719C63.1265 11.9115 62.7671 12.2448 62.4963 12.6719C62.2254 13.0885 62.0275 13.5781 61.9025 14.1406C61.7775 14.7031 61.715 15.3073 61.715 15.9531ZM95.9625 6.14062L89.775 25H84.7906L93.2438 2.25H96.4156L95.9625 6.14062ZM101.103 25L94.9 6.14062L94.4 2.25H97.6031L106.103 25H101.103ZM100.822 16.5312V20.2031H88.8063V16.5312H100.822ZM114.18 21.7188L117.93 8.09375H122.633L116.93 25H114.086L114.18 21.7188ZM111.602 8.09375L115.368 21.7344L115.446 25H112.586L106.883 8.09375H111.602ZM130.429 11.7812V25H125.929V8.09375H130.163L130.429 11.7812ZM135.522 7.98438L135.444 12.1562C135.226 12.125 134.96 12.099 134.647 12.0781C134.345 12.0469 134.069 12.0312 133.819 12.0312C133.184 12.0312 132.632 12.1146 132.163 12.2812C131.705 12.4375 131.319 12.6719 131.007 12.9844C130.705 13.2969 130.476 13.6771 130.319 14.125C130.174 14.5729 130.09 15.0833 130.069 15.6562L129.163 15.375C129.163 14.2812 129.272 13.276 129.491 12.3594C129.71 11.4323 130.028 10.625 130.444 9.9375C130.871 9.25 131.392 8.71875 132.007 8.34375C132.621 7.96875 133.325 7.78125 134.116 7.78125C134.366 7.78125 134.621 7.80208 134.882 7.84375C135.142 7.875 135.356 7.92188 135.522 7.98438ZM143.678 8.09375V25H139.162V8.09375H143.678ZM138.881 3.6875C138.881 3.03125 139.11 2.48958 139.568 2.0625C140.026 1.63542 140.641 1.42188 141.412 1.42188C142.172 1.42188 142.782 1.63542 143.24 2.0625C143.709 2.48958 143.943 3.03125 143.943 3.6875C143.943 4.34375 143.709 4.88542 143.24 5.3125C142.782 5.73958 142.172 5.95312 141.412 5.95312C140.641 5.95312 140.026 5.73958 139.568 5.3125C139.11 4.88542 138.881 4.34375 138.881 3.6875ZM155.661 21.7969C156.213 21.7969 156.702 21.6927 157.129 21.4844C157.556 21.2656 157.89 20.9635 158.129 20.5781C158.379 20.1823 158.51 19.7188 158.52 19.1875H162.754C162.744 20.375 162.426 21.4323 161.801 22.3594C161.176 23.276 160.338 24 159.286 24.5312C158.234 25.0521 157.056 25.3125 155.754 25.3125C154.442 25.3125 153.296 25.0938 152.317 24.6562C151.348 24.2188 150.541 23.6146 149.895 22.8438C149.249 22.0625 148.765 21.1562 148.442 20.125C148.119 19.0833 147.958 17.9688 147.958 16.7812V16.3281C147.958 15.1302 148.119 14.0156 148.442 12.9844C148.765 11.9427 149.249 11.0365 149.895 10.2656C150.541 9.48438 151.348 8.875 152.317 8.4375C153.286 8 154.421 7.78125 155.723 7.78125C157.109 7.78125 158.322 8.04688 159.364 8.57812C160.416 9.10938 161.239 9.86979 161.833 10.8594C162.437 11.8385 162.744 13 162.754 14.3438H158.52C158.51 13.7812 158.39 13.2708 158.161 12.8125C157.942 12.3542 157.619 11.9896 157.192 11.7188C156.775 11.4375 156.26 11.2969 155.645 11.2969C154.989 11.2969 154.452 11.4375 154.036 11.7188C153.619 11.9896 153.296 12.3646 153.067 12.8438C152.838 13.3125 152.676 13.849 152.583 14.4531C152.499 15.0469 152.458 15.6719 152.458 16.3281V16.7812C152.458 17.4375 152.499 18.0677 152.583 18.6719C152.666 19.276 152.822 19.8125 153.051 20.2812C153.291 20.75 153.619 21.1198 154.036 21.3906C154.452 21.6615 154.994 21.7969 155.661 21.7969ZM171.144 0.984375V25H166.644V0.984375H171.144ZM181.8 8.09375L174.456 16.4688L170.519 20.4531L168.878 17.2031L172.003 13.2344L176.394 8.09375H181.8ZM177.128 25L172.128 17.1875L175.238 14.4688L182.316 25H177.128Z" fill="white"/>
</svg>
